{"asset":{"version":"2.0","generator":"Point105-AR.GLTFExporter"},"scenes":[{"nodes":[0,1,2,3,4,5,6,7,8,9,10]}],"scene":0,"nodes":[{"matrix":[0.01,0,0,0,0,-0.009999999999999992,4.3711387953671017e-10,0,0,-4.3711387953671017e-10,-0.009999999999999992,0,0,-0.11401753425598145,0.11401747703552247,1],"name":"object_1","mesh":0},{"matrix":[0.01,0,0,0,0,-0.009999999999999992,4.3711387953671017e-10,0,0,-4.3711387953671017e-10,-0.009999999999999992,0,0,-0.11401753425598145,0.11401747703552247,1],"name":"object_2","mesh":1},{"matrix":[0.01,0,0,0,0,-0.009999999999999992,4.3711387953671017e-10,0,0,-4.3711387953671017e-10,-0.009999999999999992,0,0,-0.11401753425598145,0.11401747703552247,1],"name":"object_4","mesh":2},{"matrix":[0.01,0,0,0,0,-0.009999999999999992,4.3711387953671017e-10,0,0,-4.3711387953671017e-10,-0.009999999999999992,0,0,-0.11401753425598145,0.11401747703552247,1],"name":"object_5","mesh":3},{"matrix":[0.01,0,0,0,0,-0.009999999999999992,4.3711387953671017e-10,0,0,-4.3711387953671017e-10,-0.009999999999999992,0,0,-0.11401753425598145,0.11401747703552247,1],"name":"object_7","mesh":4},{"matrix":[0.01,0,0,0,0,-0.009999999999999992,4.3711387953671017e-10,0,0,-4.3711387953671017e-10,-0.009999999999999992,0,0,-0.11401753425598145,0.11401747703552247,1],"name":"object_8","mesh":5},{"matrix":[0.01,0,0,0,0,-0.009999999999999992,4.3711387953671017e-10,0,0,-4.3711387953671017e-10,-0.009999999999999992,0,0,-0.11401753425598145,0.11401747703552247,1],"name":"object_9","mesh":6},{"matrix":[0.01,0,0,0,0,-0.009999999999999992,4.3711387953671017e-10,0,0,-4.3711387953671017e-10,-0.009999999999999992,0,0,-0.11401753425598145,0.11401747703552247,1],"name":"object_10","mesh":7},{"matrix":[0.01,0,0,0,0,-0.009999999999999992,4.3711387953671017e-10,0,0,-4.3711387953671017e-10,-0.009999999999999992,0,0,-0.11401753425598145,0.11401747703552247,1],"name":"object_11","mesh":8},{"matrix":[0.01,0,0,0,0,-0.009999999999999992,4.3711387953671017e-10,0,0,-4.3711387953671017e-10,-0.009999999999999992,0,0,-0.11401753425598145,0.11401747703552247,1],"name":"object_12","mesh":9},{"matrix":[0.01,0,0,0,0,-0.009999999999999992,4.3711387953671017e-10,0,0,-4.3711387953671017e-10,-0.009999999999999992,0,0,-0.11401753425598145,0.11401747703552247,1],"name":"object_13","mesh":10}],"bufferViews":[{"buffer":0,"byteOffset":0,"byteLength":18288,"target":34962,"byteStride":12},{"buffer":0,"byteOffset":18288,"byteLength":18288,"target":34962,"byteStride":12},{"buffer":0,"byteOffset":36576,"byteLength":12192,"target":34962,"byteStride":8},{"buffer":0,"byteOffset":48768,"byteLength":3048,"target":34963},{"buffer":0,"byteOffset":51816,"byteLength":62208,"target":34962,"byteStride":12},{"buffer":0,"byteOffset":114024,"byteLength":62208,"target":34962,"byteStride":12},{"buffer":0,"byteOffset":176232,"byteLength":41472,"target":34962,"byteStride":8},{"buffer":0,"byteOffset":217704,"byteLength":10368,"target":34963},{"buffer":0,"byteOffset":228072,"byteLength":248868,"target":34962,"byteStride":12},{"buffer":0,"byteOffset":476940,"byteLength":248868,"target":34962,"byteStride":12},{"buffer":0,"byteOffset":725808,"byteLength":165912,"target":34962,"byteStride":8},{"buffer":0,"byteOffset":891720,"byteLength":41480,"target":34963},{"buffer":0,"byteOffset":933200,"byteLength":705024,"target":34962,"byteStride":12},{"buffer":0,"byteOffset":1638224,"byteLength":705024,"target":34962,"byteStride":12},{"buffer":0,"byteOffset":2343248,"byteLength":470016,"target":34962,"byteStride":8},{"buffer":0,"byteOffset":2813264,"byteLength":117504,"target":34963},{"buffer":0,"byteOffset":2930768,"byteLength":8640,"target":34962,"byteStride":12},{"buffer":0,"byteOffset":2939408,"byteLength":8640,"target":34962,"byteStride":12},{"buffer":0,"byteOffset":2948048,"byteLength":5760,"target":34962,"byteStride":8},{"buffer":0,"byteOffset":2953808,"byteLength":1440,"target":34963},{"buffer":0,"byteOffset":2955248,"byteLength":164736,"target":34962,"byteStride":12},{"buffer":0,"byteOffset":3119984,"byteLength":164736,"target":34962,"byteStride":12},{"buffer":0,"byteOffset":3284720,"byteLength":109824,"target":34962,"byteStride":8},{"buffer":0,"byteOffset":3394544,"byteLength":27456,"target":34963},{"buffer":0,"byteOffset":3422000,"byteLength":16128,"target":34962,"byteStride":12},{"buffer":0,"byteOffset":3438128,"byteLength":16128,"target":34962,"byteStride":12},{"buffer":0,"byteOffset":3454256,"byteLength":10752,"target":34962,"byteStride":8},{"buffer":0,"byteOffset":3465008,"byteLength":2688,"target":34963},{"buffer":0,"byteOffset":3467696,"byteLength":8640,"target":34962,"byteStride":12},{"buffer":0,"byteOffset":3476336,"byteLength":8640,"target":34962,"byteStride":12},{"buffer":0,"byteOffset":3484976,"byteLength":5760,"target":34962,"byteStride":8},{"buffer":0,"byteOffset":3490736,"byteLength":1440,"target":34963},{"buffer":0,"byteOffset":3492176,"byteLength":238968,"target":34962,"byteStride":12},{"buffer":0,"byteOffset":3731144,"byteLength":238968,"target":34962,"byteStride":12},{"buffer":0,"byteOffset":3970112,"byteLength":159312,"target":34962,"byteStride":8},{"buffer":0,"byteOffset":4129424,"byteLength":39828,"target":34963},{"buffer":0,"byteOffset":4169252,"byteLength":36864,"target":34962,"byteStride":12},{"buffer":0,"byteOffset":4206116,"byteLength":36864,"target":34962,"byteStride":12},{"buffer":0,"byteOffset":4242980,"byteLength":24576,"target":34962,"byteStride":8},{"buffer":0,"byteOffset":4267556,"byteLength":6144,"target":34963},{"buffer":0,"byteOffset":4273700,"byteLength":36864,"target":34962,"byteStride":12},{"buffer":0,"byteOffset":4310564,"byteLength":36864,"target":34962,"byteStride":12},{"buffer":0,"byteOffset":4347428,"byteLength":24576,"target":34962,"byteStride":8},{"buffer":0,"byteOffset":4372004,"byteLength":6144,"target":34963}],"buffers":[{"byteLength":4378148,"uri":"Test.bin"}],"accessors":[{"bufferView":0,"componentType":5126,"count":1524,"max":[5.997682571411133,-1.2005996704101562,5.997682571411133],"min":[-5.997682571411133,-12.67870044708252,-5.997682571411133],"type":"VEC3"},{"bufferView":1,"componentType":5126,"count":1524,"max":[0.9998093843460083,1,0.9998093843460083],"min":[-0.9998093843460083,-1,-0.9998093843460083],"type":"VEC3"},{"bufferView":2,"componentType":5126,"count":1524,"max":[1.19295334815979,1],"min":[0.004620806779712439,0],"type":"VEC2"},{"bufferView":3,"componentType":5123,"count":1524,"max":[1523],"min":[0],"type":"SCALAR"},{"bufferView":4,"componentType":5126,"count":5184,"max":[6.019674301147461,-13.212409973144531,6.019674301147461],"min":[-6.019674301147461,-16.420841217041016,-6.019674301147461],"type":"VEC3"},{"bufferView":5,"componentType":5126,"count":5184,"max":[0.9999445080757141,1,0.9999445080757141],"min":[-0.9999445080757141,-1,-0.9999445080757141],"type":"VEC3"},{"bufferView":6,"componentType":5126,"count":5184,"max":[0.99853515625,1],"min":[0,0.07824301719665527],"type":"VEC2"},{"bufferView":7,"componentType":5123,"count":5184,"max":[5183],"min":[0],"type":"SCALAR"},{"bufferView":8,"componentType":5126,"count":20739,"max":[5.998147964477539,-0.0003934133274015039,5.99847412109375],"min":[-5.99869966506958,-1.2005996704101562,-5.998566150665283],"type":"VEC3"},{"bufferView":9,"componentType":5126,"count":20739,"max":[0.999902069568634,1,0.9999643564224243],"min":[-0.9999995827674866,-9.854137471287938e-12,-0.9999788403511047],"type":"VEC3"},{"bufferView":10,"componentType":5126,"count":20739,"max":[0.30970096588134766,1],"min":[0,0.00146484375],"type":"VEC2"},{"bufferView":11,"componentType":5123,"count":20739,"max":[20738],"min":[0],"type":"SCALAR"},{"bufferView":12,"componentType":5126,"count":58752,"max":[6.029945373535156,-12.665650367736816,6.029945373535156],"min":[-6.029945373535156,-15.8771390914917,-6.029945373535156],"type":"VEC3"},{"bufferView":13,"componentType":5126,"count":58752,"max":[1,1,1],"min":[-1,-1,-1],"type":"VEC3"},{"bufferView":14,"componentType":5126,"count":58752,"max":[2.4929709434509277,0.997803270816803],"min":[0,0.002226114273071289],"type":"VEC2"},{"bufferView":15,"componentType":5123,"count":58752,"max":[58751],"min":[0],"type":"SCALAR"},{"bufferView":16,"componentType":5126,"count":720,"max":[5.498705863952637,-15.993863105773926,5.498745918273926],"min":[-5.498701572418213,-15.993863105773926,-5.498712539672852],"type":"VEC3"},{"bufferView":17,"componentType":5126,"count":720,"max":[2.1444280186077918e-17,-1,1.0895375536109205e-16],"min":[-2.1444280186077918e-17,-1,-1.0895375536109205e-16],"type":"VEC3"},{"bufferView":18,"componentType":5126,"count":720,"max":[1,1],"min":[0,0],"type":"VEC2"},{"bufferView":19,"componentType":5123,"count":720,"max":[719],"min":[0],"type":"SCALAR"},{"bufferView":20,"componentType":5126,"count":13728,"max":[5.998631954193115,-12.678377151489258,5.998583793640137],"min":[-5.998595714569092,-13.358377456665039,-5.9985880851745605],"type":"VEC3"},{"bufferView":21,"componentType":5126,"count":13728,"max":[0.9999824166297913,4.1005303319519015e-11,0.999982476234436],"min":[-0.9999823570251465,-1,-0.999982476234436],"type":"VEC3"},{"bufferView":22,"componentType":5126,"count":13728,"max":[1,1],"min":[0,0],"type":"VEC2"},{"bufferView":23,"componentType":5123,"count":13728,"max":[13727],"min":[0],"type":"SCALAR"},{"bufferView":24,"componentType":5126,"count":1344,"max":[5.798677921295166,-13.216711044311523,5.798630714416504],"min":[-5.798642635345459,-13.50010871887207,-5.798635482788086],"type":"VEC3"},{"bufferView":25,"componentType":5126,"count":1344,"max":[0.9999824166297913,4.540700531774442e-15,0.999982476234436],"min":[-0.9999823570251465,-7.852038619727674e-15,-0.999982476234436],"type":"VEC3"},{"bufferView":26,"componentType":5126,"count":1344,"max":[1,1],"min":[0,0],"type":"VEC2"},{"bufferView":27,"componentType":5123,"count":1344,"max":[1343],"min":[0],"type":"SCALAR"},{"bufferView":28,"componentType":5126,"count":720,"max":[5.798677921295166,-13.216711044311523,5.798630714416504],"min":[-5.798642635345459,-13.216711044311523,-5.798635482788086],"type":"VEC3"},{"bufferView":29,"componentType":5126,"count":720,"max":[2.599755026327314e-15,-1,6.140628878591094e-17],"min":[2.1674867965308956e-15,-1,-3.52098281874473e-16],"type":"VEC3"},{"bufferView":30,"componentType":5126,"count":720,"max":[1,1],"min":[0,0],"type":"VEC2"},{"bufferView":31,"componentType":5123,"count":720,"max":[719],"min":[0],"type":"SCALAR"},{"bufferView":32,"componentType":5126,"count":19914,"max":[5.998439311981201,-13.49135684967041,5.998439311981201],"min":[-5.998439311981201,-15.993863105773926,-5.998439311981201],"type":"VEC3"},{"bufferView":33,"componentType":5126,"count":19914,"max":[0.9999355673789978,1,0.9999355673789978],"min":[-0.9999355673789978,-1,-0.9999355673789978],"type":"VEC3"},{"bufferView":34,"componentType":5126,"count":19914,"max":[0.99853515625,1],"min":[0,0.018636047840118408],"type":"VEC2"},{"bufferView":35,"componentType":5123,"count":19914,"max":[19913],"min":[0],"type":"SCALAR"},{"bufferView":36,"componentType":5126,"count":3072,"max":[6.017214298248291,-1.2005996704101562,6.017214298248291],"min":[-6.017214298248291,-1.2505996227264404,-6.017214298248291],"type":"VEC3"},{"bufferView":37,"componentType":5126,"count":3072,"max":[0.999732255935669,1,0.999732255935669],"min":[-0.999732255935669,-1,-0.999732255935669],"type":"VEC3"},{"bufferView":38,"componentType":5126,"count":3072,"max":[1,1],"min":[0,0],"type":"VEC2"},{"bufferView":39,"componentType":5123,"count":3072,"max":[3071],"min":[0],"type":"SCALAR"},{"bufferView":40,"componentType":5126,"count":3072,"max":[6.017214298248291,-12.615206718444824,6.017214298248291],"min":[-6.017214298248291,-12.665206909179688,-6.017214298248291],"type":"VEC3"},{"bufferView":41,"componentType":5126,"count":3072,"max":[0.999732255935669,1,0.999732255935669],"min":[-0.999732255935669,-1,-0.999732255935669],"type":"VEC3"},{"bufferView":42,"componentType":5126,"count":3072,"max":[1,1],"min":[0,0],"type":"VEC2"},{"bufferView":43,"componentType":5123,"count":3072,"max":[3071],"min":[0],"type":"SCALAR"}],"materials":[{"pbrMetallicRoughness":{"baseColorFactor":[1,1,1,1],"metallicFactor":0,"roughnessFactor":0,"baseColorTexture":{"index":0}},"name":"Material #25"},{"pbrMetallicRoughness":{"baseColorFactor":[0.5879999995231628,0.5879999995231628,0.5879999995231628,1],"metallicFactor":0,"roughnessFactor":1},"name":"default"},{"pbrMetallicRoughness":{"baseColorFactor":[1,1,1,1],"metallicFactor":0,"roughnessFactor":0,"baseColorTexture":{"index":1}},"name":"Material #28"},{"pbrMetallicRoughness":{"baseColorFactor":[1,1,1,1],"metallicFactor":0,"roughnessFactor":0,"baseColorTexture":{"index":2}},"name":"Material #29"},{"pbrMetallicRoughness":{"baseColorFactor":[1,1,1,1],"metallicFactor":0,"roughnessFactor":0,"baseColorTexture":{"index":3}},"name":"Material #21"}],"textures":[{"name":"Material__25_diffuse.jpeg","sampler":0,"source":0},{"name":"Material__25_diffuse.jpeg","sampler":1,"source":0},{"name":"Material__29_diffuse.png","sampler":2,"source":1},{"name":"Material__21_diffuse.jpeg","sampler":3,"source":2}],"images":[{"mimeType":"image/jpeg","uri":"Material__25_diffuse.jpeg"},{"mimeType":"image/png","uri":"Material__29_diffuse.png"},{"mimeType":"image/jpeg","uri":"Material__21_diffuse.jpeg"}],"samplers":[{"magFilter":9729,"minFilter":9987},{"magFilter":9729,"minFilter":9987},{"magFilter":9729,"minFilter":9987},{"magFilter":9729,"minFilter":9987}],"meshes":[{"primitives":[{"mode":4,"attributes":{"POSITION":0,"NORMAL":1,"TEXCOORD_0":2},"indices":3,"material":0}]},{"primitives":[{"mode":4,"attributes":{"POSITION":4,"NORMAL":5,"TEXCOORD_0":6},"indices":7,"material":1}]},{"primitives":[{"mode":4,"attributes":{"POSITION":8,"NORMAL":9,"TEXCOORD_0":10},"indices":11,"material":2}]},{"primitives":[{"mode":4,"attributes":{"POSITION":12,"NORMAL":13,"TEXCOORD_0":14},"indices":15,"material":3}]},{"primitives":[{"mode":4,"attributes":{"POSITION":16,"NORMAL":17,"TEXCOORD_0":18},"indices":19,"material":4}]},{"primitives":[{"mode":4,"attributes":{"POSITION":20,"NORMAL":21,"TEXCOORD_0":22},"indices":23,"material":1}]},{"primitives":[{"mode":4,"attributes":{"POSITION":24,"NORMAL":25,"TEXCOORD_0":26},"indices":27,"material":1}]},{"primitives":[{"mode":4,"attributes":{"POSITION":28,"NORMAL":29,"TEXCOORD_0":30},"indices":31,"material":1}]},{"primitives":[{"mode":4,"attributes":{"POSITION":32,"NORMAL":33,"TEXCOORD_0":34},"indices":35,"material":2}]},{"primitives":[{"mode":4,"attributes":{"POSITION":36,"NORMAL":37,"TEXCOORD_0":38},"indices":39,"material":1}]},{"primitives":[{"mode":4,"attributes":{"POSITION":40,"NORMAL":41,"TEXCOORD_0":42},"indices":43,"material":1}]}]}